<mxfile host="app.diagrams.net" agent="Mozilla/5.0 (Macintosh; Intel Mac OS X 10_15_7) AppleWebKit/537.36 (KHTML, like Gecko) Chrome/131.0.0.0 Safari/537.36" version="26.0.3">
  <diagram name="Page-1" id="IGE4oO0oZwFkSfXHbFVS">
    <mxGraphModel dx="1272" dy="681" grid="1" gridSize="10" guides="1" tooltips="1" connect="1" arrows="1" fold="1" page="1" pageScale="1" pageWidth="1200" pageHeight="630" background="#FFFFCC" math="0" shadow="0">
      <root>
        <mxCell id="0" />
        <mxCell id="1" parent="0" />
        <mxCell id="MLuQcqGURr33ZYP_BP32-4" value="" style="rounded=0;whiteSpace=wrap;html=1;sketch=1;hachureGap=4;jiggle=2;curveFitting=1;fontFamily=Architects Daughter;fontSource=https%3A%2F%2Ffonts.googleapis.com%2Fcss%3Ffamily%3DArchitects%2BDaughter;" vertex="1" parent="1">
          <mxGeometry x="495" y="50" width="210" height="230" as="geometry" />
        </mxCell>
        <mxCell id="MLuQcqGURr33ZYP_BP32-3" value="" style="rounded=0;whiteSpace=wrap;html=1;sketch=1;hachureGap=4;jiggle=2;curveFitting=1;fontFamily=Architects Daughter;fontSource=https%3A%2F%2Ffonts.googleapis.com%2Fcss%3Ffamily%3DArchitects%2BDaughter;" vertex="1" parent="1">
          <mxGeometry x="748.15" y="50" width="210" height="420" as="geometry" />
        </mxCell>
        <mxCell id="MLuQcqGURr33ZYP_BP32-2" value="" style="rounded=0;whiteSpace=wrap;html=1;sketch=1;hachureGap=4;jiggle=2;curveFitting=1;fontFamily=Architects Daughter;fontSource=https%3A%2F%2Ffonts.googleapis.com%2Fcss%3Ffamily%3DArchitects%2BDaughter;" vertex="1" parent="1">
          <mxGeometry x="240" y="490" width="720" height="90" as="geometry" />
        </mxCell>
        <mxCell id="MXi2uvIM91dx286VdFOJ-52" value="13 Essential Data Pipeline Principles" style="text;strokeColor=none;fillColor=none;html=1;fontSize=44;fontStyle=5;verticalAlign=middle;align=center;fontFamily=Caveat;fontSource=https%3A%2F%2Ffonts.googleapis.com%2Fcss%3Ffamily%3DCaveat;" parent="1" vertex="1">
          <mxGeometry x="323.99" y="10" width="552" height="40" as="geometry" />
        </mxCell>
        <mxCell id="MLuQcqGURr33ZYP_BP32-1" value="" style="rounded=0;whiteSpace=wrap;html=1;sketch=1;hachureGap=4;jiggle=2;curveFitting=1;fontFamily=Architects Daughter;fontSource=https%3A%2F%2Ffonts.googleapis.com%2Fcss%3Ffamily%3DArchitects%2BDaughter;fillColor=#e1d5e7;strokeColor=#9673a6;" vertex="1" parent="1">
          <mxGeometry x="240" y="50" width="210" height="420" as="geometry" />
        </mxCell>
        <mxCell id="MXi2uvIM91dx286VdFOJ-37" value="" style="edgeStyle=orthogonalEdgeStyle;rounded=0;sketch=1;hachureGap=4;jiggle=2;curveFitting=1;orthogonalLoop=1;jettySize=auto;html=1;fontFamily=Caveat;fontSource=https%3A%2F%2Ffonts.googleapis.com%2Fcss%3Ffamily%3DCaveat;entryX=0;entryY=0.5;entryDx=0;entryDy=0;" parent="1" source="MXi2uvIM91dx286VdFOJ-1" target="MLuQcqGURr33ZYP_BP32-3" edge="1">
          <mxGeometry relative="1" as="geometry" />
        </mxCell>
        <mxCell id="MXi2uvIM91dx286VdFOJ-44" style="edgeStyle=orthogonalEdgeStyle;rounded=0;sketch=1;hachureGap=4;jiggle=2;curveFitting=1;orthogonalLoop=1;jettySize=auto;html=1;exitX=0;exitY=0.5;exitDx=0;exitDy=0;entryX=1;entryY=0.5;entryDx=0;entryDy=0;fontFamily=Caveat;fontSource=https%3A%2F%2Ffonts.googleapis.com%2Fcss%3Ffamily%3DCaveat;" parent="1" source="MXi2uvIM91dx286VdFOJ-1" target="MLuQcqGURr33ZYP_BP32-1" edge="1">
          <mxGeometry relative="1" as="geometry" />
        </mxCell>
        <mxCell id="MLuQcqGURr33ZYP_BP32-6" style="edgeStyle=orthogonalEdgeStyle;rounded=0;sketch=1;hachureGap=4;jiggle=2;curveFitting=1;orthogonalLoop=1;jettySize=auto;html=1;exitX=0.5;exitY=1;exitDx=0;exitDy=0;entryX=0.5;entryY=0;entryDx=0;entryDy=0;fontFamily=Architects Daughter;fontSource=https%3A%2F%2Ffonts.googleapis.com%2Fcss%3Ffamily%3DArchitects%2BDaughter;" edge="1" parent="1" source="MXi2uvIM91dx286VdFOJ-1" target="MLuQcqGURr33ZYP_BP32-2">
          <mxGeometry relative="1" as="geometry" />
        </mxCell>
        <mxCell id="MXi2uvIM91dx286VdFOJ-1" value="&lt;font data-font-src=&quot;https://fonts.googleapis.com/css?family=Caveat&quot; style=&quot;font-size: 42px; color: rgb(51, 0, 0);&quot;&gt;Principles&lt;/font&gt;" style="shape=tapeData;whiteSpace=wrap;html=1;perimeter=ellipsePerimeter;sketch=1;curveFitting=1;jiggle=2;fontFamily=Caveat;fontSource=https%3A%2F%2Ffonts.googleapis.com%2Fcss%3Ffamily%3DCaveat;labelBackgroundColor=none;fillColor=#d80073;fontColor=#ffffff;strokeColor=#A50040;gradientColor=none;" parent="1" vertex="1">
          <mxGeometry x="519.8755114285714" y="307.17297297297296" width="152.0478657142857" height="140.34954954954955" as="geometry" />
        </mxCell>
        <mxCell id="MXi2uvIM91dx286VdFOJ-20" value="Immutability" style="rounded=0;whiteSpace=wrap;html=1;sketch=1;hachureGap=4;jiggle=2;curveFitting=1;fontFamily=Caveat;fontSource=https%3A%2F%2Ffonts.googleapis.com%2Fcss%3Ffamily%3DCaveat;fillColor=#ffe6cc;strokeColor=#d79b00;fontSize=32;fontStyle=0" parent="1" vertex="1">
          <mxGeometry x="507.0664314285714" y="74.44144144144144" width="177.65714285714287" height="53.2972972972973" as="geometry" />
        </mxCell>
        <mxCell id="MXi2uvIM91dx286VdFOJ-21" value="Decoupling" style="rounded=0;whiteSpace=wrap;html=1;sketch=1;hachureGap=4;jiggle=2;curveFitting=1;fontFamily=Caveat;fontSource=https%3A%2F%2Ffonts.googleapis.com%2Fcss%3Ffamily%3DCaveat;fillColor=#ffe6cc;strokeColor=#d79b00;fontSize=32;fontStyle=0" parent="1" vertex="1">
          <mxGeometry x="507.0664314285714" y="509.7027027027027" width="177.65714285714287" height="53.2972972972973" as="geometry" />
        </mxCell>
        <mxCell id="MXi2uvIM91dx286VdFOJ-22" value="Partitioning" style="rounded=0;whiteSpace=wrap;html=1;sketch=1;hachureGap=4;jiggle=2;curveFitting=1;fontFamily=Caveat;fontSource=https%3A%2F%2Ffonts.googleapis.com%2Fcss%3Ffamily%3DCaveat;fillColor=#ffe6cc;strokeColor=#d79b00;fontSize=32;fontStyle=0" parent="1" vertex="1">
          <mxGeometry x="764.3228571428572" y="74.44144144144144" width="177.65714285714287" height="53.2972972972973" as="geometry" />
        </mxCell>
        <mxCell id="MXi2uvIM91dx286VdFOJ-23" value="Modularity" style="rounded=0;whiteSpace=wrap;html=1;sketch=1;hachureGap=4;jiggle=2;curveFitting=1;fontFamily=Caveat;fontSource=https%3A%2F%2Ffonts.googleapis.com%2Fcss%3Ffamily%3DCaveat;fillColor=#ffe6cc;strokeColor=#d79b00;fontSize=32;fontStyle=0" parent="1" vertex="1">
          <mxGeometry x="764.3228571428572" y="287.63063063063066" width="177.65714285714287" height="53.2972972972973" as="geometry" />
        </mxCell>
        <mxCell id="MXi2uvIM91dx286VdFOJ-24" value="Isolation" style="rounded=0;whiteSpace=wrap;html=1;sketch=1;hachureGap=4;jiggle=2;curveFitting=1;fontFamily=Caveat;fontSource=https%3A%2F%2Ffonts.googleapis.com%2Fcss%3Ffamily%3DCaveat;fillColor=#ffe6cc;strokeColor=#d79b00;fontSize=32;fontStyle=0" parent="1" vertex="1">
          <mxGeometry x="764.3228571428572" y="509.7027027027027" width="177.65714285714287" height="53.2972972972973" as="geometry" />
        </mxCell>
        <mxCell id="MXi2uvIM91dx286VdFOJ-25" value="Idempotency" style="rounded=0;whiteSpace=wrap;html=1;sketch=1;hachureGap=4;jiggle=2;curveFitting=1;fontFamily=Caveat;fontSource=https%3A%2F%2Ffonts.googleapis.com%2Fcss%3Ffamily%3DCaveat;fillColor=#76608a;strokeColor=#432D57;fontSize=32;fontStyle=0;fontColor=#000000;" parent="1" vertex="1">
          <mxGeometry x="258" y="70" width="177.65714285714287" height="53.2972972972973" as="geometry" />
        </mxCell>
        <mxCell id="MXi2uvIM91dx286VdFOJ-26" value="Reliability" style="rounded=0;whiteSpace=wrap;html=1;sketch=1;hachureGap=4;jiggle=2;curveFitting=1;fontFamily=Caveat;fontSource=https%3A%2F%2Ffonts.googleapis.com%2Fcss%3Ffamily%3DCaveat;fillColor=#76608a;strokeColor=#432D57;fontSize=32;fontStyle=0;fontColor=#ffffff;" parent="1" vertex="1">
          <mxGeometry x="258" y="287.63063063063066" width="177.65714285714287" height="53.2972972972973" as="geometry" />
        </mxCell>
        <mxCell id="MXi2uvIM91dx286VdFOJ-27" value="Scalability" style="rounded=0;whiteSpace=wrap;html=1;sketch=1;hachureGap=4;jiggle=2;curveFitting=1;fontFamily=Caveat;fontSource=https%3A%2F%2Ffonts.googleapis.com%2Fcss%3Ffamily%3DCaveat;fillColor=#ffe6cc;strokeColor=#d79b00;fontSize=32;fontStyle=0" parent="1" vertex="1">
          <mxGeometry x="258" y="505.26126126126127" width="177.65714285714287" height="53.2972972972973" as="geometry" />
        </mxCell>
        <mxCell id="MXi2uvIM91dx286VdFOJ-28" value="Event Driven" style="rounded=0;whiteSpace=wrap;html=1;sketch=1;hachureGap=4;jiggle=2;curveFitting=1;fontFamily=Caveat;fontSource=https%3A%2F%2Ffonts.googleapis.com%2Fcss%3Ffamily%3DCaveat;fillColor=#ffe6cc;strokeColor=#d79b00;fontSize=32;fontStyle=0" parent="1" vertex="1">
          <mxGeometry x="764.3228571428572" y="185.47747747747746" width="177.65714285714287" height="53.2972972972973" as="geometry" />
        </mxCell>
        <mxCell id="MXi2uvIM91dx286VdFOJ-29" value="Composability" style="rounded=0;whiteSpace=wrap;html=1;sketch=1;hachureGap=4;jiggle=2;curveFitting=1;fontFamily=Caveat;fontSource=https%3A%2F%2Ffonts.googleapis.com%2Fcss%3Ffamily%3DCaveat;fillColor=#ffe6cc;strokeColor=#d79b00;fontSize=32;fontStyle=0" parent="1" vertex="1">
          <mxGeometry x="764.3228571428572" y="398.6666666666667" width="177.65714285714287" height="53.2972972972973" as="geometry" />
        </mxCell>
        <mxCell id="MXi2uvIM91dx286VdFOJ-30" value="Consistency" style="rounded=0;whiteSpace=wrap;html=1;sketch=1;hachureGap=4;jiggle=2;curveFitting=1;fontFamily=Caveat;fontSource=https%3A%2F%2Ffonts.googleapis.com%2Fcss%3Ffamily%3DCaveat;fillColor=#76608a;strokeColor=#432D57;fontSize=32;fontStyle=0;fontColor=#ffffff;" parent="1" vertex="1">
          <mxGeometry x="258" y="181.03603603603602" width="177.65714285714287" height="53.2972972972973" as="geometry" />
        </mxCell>
        <mxCell id="MXi2uvIM91dx286VdFOJ-31" value="Stateful" style="rounded=0;whiteSpace=wrap;html=1;sketch=1;hachureGap=4;jiggle=2;curveFitting=1;fontFamily=Caveat;fontSource=https%3A%2F%2Ffonts.googleapis.com%2Fcss%3Ffamily%3DCaveat;fillColor=#76608a;strokeColor=#432D57;fontSize=32;fontStyle=0;fontColor=#ffffff;" parent="1" vertex="1">
          <mxGeometry x="258" y="394.22522522522524" width="177.65714285714287" height="53.2972972972973" as="geometry" />
        </mxCell>
        <mxCell id="MXi2uvIM91dx286VdFOJ-48" value="" style="edgeStyle=orthogonalEdgeStyle;rounded=0;sketch=1;hachureGap=4;jiggle=2;curveFitting=1;orthogonalLoop=1;jettySize=auto;html=1;exitX=0.5;exitY=0;exitDx=0;exitDy=0;fontFamily=Caveat;fontSource=https%3A%2F%2Ffonts.googleapis.com%2Fcss%3Ffamily%3DCaveat;entryX=0.5;entryY=1;entryDx=0;entryDy=0;" parent="1" source="MXi2uvIM91dx286VdFOJ-1" target="MLuQcqGURr33ZYP_BP32-4" edge="1">
          <mxGeometry relative="1" as="geometry">
            <mxPoint x="595.5485714285714" y="307.17297297297296" as="sourcePoint" />
            <mxPoint x="596" y="290" as="targetPoint" />
          </mxGeometry>
        </mxCell>
        <mxCell id="MXi2uvIM91dx286VdFOJ-47" value="Determinism" style="rounded=0;whiteSpace=wrap;html=1;sketch=1;hachureGap=4;jiggle=2;curveFitting=1;fontFamily=Caveat;fontSource=https%3A%2F%2Ffonts.googleapis.com%2Fcss%3Ffamily%3DCaveat;fillColor=#ffe6cc;strokeColor=#d79b00;fontSize=32;fontStyle=0" parent="1" vertex="1">
          <mxGeometry x="507.07531428571417" y="181.03603603603602" width="177.65714285714287" height="53.2972972972973" as="geometry" />
        </mxCell>
      </root>
    </mxGraphModel>
  </diagram>
</mxfile>
